<svg xmlns="http://www.w3.org/2000/svg" width="221.006" height="30.233" viewBox="0 0 221.006 30.233">
  <g id="Group_46" data-name="Group 46" transform="translate(-605.937 -657)">
    <path id="Path_13" data-name="Path 13" d="M605.937,688.893V666.877h2.929v22.016Z" transform="translate(0 -2.05)" fill="#0e1116"/>
    <path id="Path_14" data-name="Path 14" d="M630.626,666.877h2.914v22.016h-3.008l-12.449-17.14v17.14h-2.93V666.877h3.023l12.449,17.2Z" transform="translate(-1.913 -2.05)" fill="#0e1116"/>
    <path id="Path_15" data-name="Path 15" d="M652.386,666.877a11.448,11.448,0,0,1,5.7,1.434,10.408,10.408,0,0,1,4,3.95,11.623,11.623,0,0,1,0,11.241,10.393,10.393,0,0,1-4,3.958,11.456,11.456,0,0,1-5.7,1.433H643.9V666.877Zm-.031,19.274a7.9,7.9,0,0,0,5.843-2.369,8.041,8.041,0,0,0,2.353-5.9,8.434,8.434,0,0,0-1.067-4.215,7.747,7.747,0,0,0-2.945-2.969,8.27,8.27,0,0,0-4.184-1.075h-5.531v16.532Z" transform="translate(-7.877 -2.05)" fill="#0e1116"/>
    <path id="Path_16" data-name="Path 16" d="M687.617,666.877v4.659h-6.124v17.357h-4.955V671.536h-6.123v-4.659Z" transform="translate(-13.38 -2.05)" fill="#0e1116"/>
    <path id="Path_17" data-name="Path 17" d="M699.726,684.234h10.143v4.659h-15.1V666.877h14.943v4.659h-9.989v3.957h8.928v4.659h-8.928Z" transform="translate(-18.434 -2.05)" fill="#0e1116"/>
    <path id="Path_18" data-name="Path 18" d="M727.11,689.18a12.139,12.139,0,0,1-4.612-.88,11.321,11.321,0,0,1-3.709-2.392,10.932,10.932,0,0,1-2.43-3.623,11.9,11.9,0,0,1,0-9.022,10.954,10.954,0,0,1,2.43-3.622,11.25,11.25,0,0,1,3.709-2.384,12.225,12.225,0,0,1,4.612-.873,12.048,12.048,0,0,1,5.617,1.317,10.973,10.973,0,0,1,4.12,3.638l-4.284,2.648a6.556,6.556,0,0,0-5.453-2.851,6.354,6.354,0,0,0-4.691,1.893,6.912,6.912,0,0,0,0,9.489,6.355,6.355,0,0,0,4.691,1.894,6.576,6.576,0,0,0,3.124-.756,6.417,6.417,0,0,0,2.329-2.08l4.284,2.648a10.965,10.965,0,0,1-4.12,3.638A12.047,12.047,0,0,1,727.11,689.18Z" transform="translate(-22.73 -1.948)" fill="#0e1116"/>
    <path id="Path_19" data-name="Path 19" d="M758.669,666.877h4.94v22.016h-4.94v-8.741h-8.834v8.741H744.88V666.877h4.955v8.616h8.834Z" transform="translate(-28.833 -2.05)" fill="#0e1116"/>
    <path id="Path_20" data-name="Path 20" d="M821.8,688.893l-1.371-3.864h-8.944l-1.371,3.864h-5.3l8.274-22.016h5.843l8.289,22.016Zm-8.709-8.43h5.734l-2.867-8.133Z" transform="translate(-41.271 -2.05)" fill="#0e1116"/>
    <path id="Path_21" data-name="Path 21" d="M846.928,688.893l-4.535-7.526H840.01v7.526h-4.955V666.877h9.551a7.566,7.566,0,0,1,5.469,2.1,7.012,7.012,0,0,1,2.182,5.267,6.79,6.79,0,0,1-1.232,4.027,7.125,7.125,0,0,1-3.3,2.548l5.142,8.071Zm-6.918-17.357v5.516H844.5a2.567,2.567,0,0,0,1.909-.787,2.683,2.683,0,0,0,.772-1.956,2.75,2.75,0,0,0-.764-1.979,2.549,2.549,0,0,0-1.917-.794Z" transform="translate(-47.545 -2.05)" fill="#0e1116"/>
    <path id="Path_22" data-name="Path 22" d="M873.149,688.893l-6.669-7.853-1.839,2.072v5.781h-4.955V666.877h4.955v9.5l8.2-9.5h6.279l-9.443,10.595,9.926,11.421Z" transform="translate(-52.657 -2.05)" fill="#0e1116"/>
    <path id="Path_23" data-name="Path 23" d="M805.953,657l-14.265,14.122-7.354,7.275-9.114-9.114,2.2-4.359,6.918,7.029L799.613,657Z" transform="translate(-35.129)" fill="#e51635"/>
    <rect id="Rectangle_21" data-name="Rectangle 21" width="4.755" height="22.19" transform="translate(737.54 664.925)" fill="#0e1116"/>
    <path id="Path_24" data-name="Path 24" d="M800.755,668.88v20.7H796V673.587Z" transform="translate(-39.441 -2.465)" fill="#0e1116"/>
  </g>
</svg>
